<svg width="292" height="320" viewBox="0 0 292 320" fill="none" xmlns="http://www.w3.org/2000/svg">
  <path d="M131.303 34.7904C131.303 49.8873 140.24 72.5629 127.321 72.5629C114.403 72.5629 117.368 59.8274 117.368 44.7305C117.368 29.6337 147.747 0 160.666 0C173.584 0 131.303 19.6935 131.303 34.7904Z" fill="#EF5956"/>
  <path d="M123.031 63.2109C138.148 63.2109 162.348 50.3099 162.348 63.2109C162.348 76.1119 149.595 73.151 134.478 73.151C119.36 73.151 94.6633 43.8615 89.6866 29.9115C84.7098 15.9615 107.914 63.2109 123.031 63.2109Z" fill="#EF5956"/>
  <path d="M157.182 45.2276C173.312 59.6407 149.989 83 137.071 83C124.152 83 127.117 70.2646 127.117 55.1677C127.117 40.0708 157.497 10.4371 170.415 10.4371C183.334 10.4371 157.182 22.3653 157.182 45.2276Z" fill="#EF5956"/>
  <ellipse cx="16.5" cy="189" rx="16.5" ry="23" fill="#EF5956"/>
  <ellipse cx="275.5" cy="189" rx="16.5" ry="23" fill="#EF5956"/>
  <ellipse cx="146.5" cy="180" rx="122.5" ry="119" fill="#EF5956"/>
  <path d="M223 247.028C223 293.292 186.638 324.466 143.936 319.125C96.0641 327.136 62.0002 278.319 62 247.028C62 207.506 92.5 195 143.936 176C186.1 190.419 223 207.506 223 247.028Z" fill="#E2D2D2"/>
  <path d="M146.5 166C146.5 186.576 128.061 203.5 105 203.5C81.939 203.5 63.5 186.576 63.5 166C63.5 145.424 81.939 128.5 105 128.5C128.061 128.5 146.5 145.424 146.5 166Z" fill="white" stroke="black" stroke-width="3"/>
  <circle cx="109.5" cy="176.5" r="10.5" fill="black"/>
  <circle cx="109.5" cy="172.5" r="10" stroke="black"/>
  <path d="M228.5 166C228.5 186.576 210.061 203.5 187 203.5C163.939 203.5 145.5 186.576 145.5 166C145.5 145.424 163.939 128.5 187 128.5C210.061 128.5 228.5 145.424 228.5 166Z" fill="white" stroke="black" stroke-width="3"/>
  <circle cx="176.5" cy="176.5" r="10.5" fill="black"/>
  <circle cx="176.5" cy="172.5" r="10" stroke="black"/>
  <path d="M158 220.5C158 224.918 151.732 233.5 144 233.5C136.268 233.5 130 224.918 130 220.5C130 216.082 136.268 212.5 144 212.5C151.732 212.5 158 216.082 158 220.5Z" fill="black"/>
  <line x1="145.2" y1="228.5" x2="145.2" y2="251.5" stroke="black" stroke-width="2.4"/>
  <path d="M193 272.801C193 275.594 174.184 290.5 150.974 290.5C127.763 290.5 103 279.387 103 276.594C103 273.801 126.97 287.55 150.181 287.55C173.391 287.55 193 270.009 193 272.801Z" fill="black"/>
</svg>
