<?xml version="1.0" standalone="no"?>
<!DOCTYPE svg PUBLIC "-//W3C//DTD SVG 20010904//EN"
 "http://www.w3.org/TR/2001/REC-SVG-20010904/DTD/svg10.dtd">
<svg version="1.0" xmlns="http://www.w3.org/2000/svg"
 width="640.000000pt" height="640.000000pt" viewBox="0 0 640.000000 640.000000"
 preserveAspectRatio="xMidYMid meet">
<metadata>
Created by potrace 1.14, written by Peter Selinger 2001-2017
</metadata>
<g transform="translate(0.000000,640.000000) scale(0.100000,-0.100000)"
fill="#000000" stroke="none">
<path d="M3405 6381 c-249 -90 -621 -454 -738 -722 -34 -76 -39 -112 -43 -299
-1 -91 -3 -171 -3 -177 -2 -30 -193 160 -277 272 -32 44 -61 82 -64 85 -15 15
-70 100 -70 108 0 6 -4 12 -9 14 -5 2 -37 45 -71 97 -33 51 -63 91 -66 88 -9
-9 53 -145 102 -225 43 -69 117 -172 152 -212 92 -108 197 -218 255 -268 24
-20 33 -34 25 -36 -52 -17 -91 -28 -101 -30 -17 -3 -149 -46 -172 -56 -11 -5
-49 -21 -85 -36 -96 -38 -309 -147 -345 -176 -5 -4 -48 -33 -95 -64 -123 -82
-220 -163 -345 -289 -127 -127 -138 -139 -228 -260 -36 -50 -71 -95 -77 -102
-5 -7 -10 -14 -10 -17 0 -2 -22 -40 -49 -84 -45 -72 -93 -166 -151 -297 -27
-58 -106 -296 -114 -340 -3 -16 -8 -43 -12 -60 -3 -16 -8 -39 -9 -50 -2 -11
-4 -20 -5 -20 -3 0 -8 -35 -15 -95 -12 -110 -11 -108 -59 -79 -45 27 -134 32
-200 12 -62 -18 -150 -104 -187 -183 -97 -203 -66 -476 72 -625 102 -110 258
-123 367 -29 22 19 43 31 45 27 3 -5 15 -46 27 -93 13 -47 29 -97 37 -112 7
-15 14 -31 14 -35 9 -64 193 -440 221 -451 4 -2 8 -8 8 -14 0 -14 79 -125 167
-233 66 -82 242 -262 303 -310 14 -11 34 -40 45 -65 17 -40 65 -131 98 -185
83 -137 262 -346 382 -446 54 -44 159 -115 229 -153 70 -38 223 -101 267 -110
13 -2 31 -7 39 -10 17 -6 52 -13 120 -24 40 -6 169 -7 375 -3 39 1 120 1 180
0 126 -2 208 5 295 25 14 3 37 8 52 10 27 5 165 49 203 66 11 4 35 14 52 22
18 7 33 16 33 20 0 5 8 8 19 8 10 0 24 7 31 15 7 8 17 15 22 15 9 0 140 86
181 120 38 30 153 147 187 189 19 24 41 49 48 56 6 8 12 18 12 24 0 6 4 11 8
11 4 0 21 25 37 55 17 30 33 55 37 55 5 0 7 3 6 8 -3 10 72 156 82 160 8 3 88
64 165 125 46 36 278 269 315 316 14 18 30 37 35 44 42 50 148 206 197 292 20
34 95 186 126 255 19 42 90 241 92 258 1 4 6 26 13 49 l11 41 35 -27 c61 -47
102 -60 174 -56 76 4 135 33 191 95 36 41 91 140 100 181 3 13 10 42 15 64 9
36 8 188 -2 240 -17 92 -76 203 -140 260 -81 73 -192 94 -277 51 -18 -9 -34
-15 -36 -13 -4 4 -15 57 -19 92 -14 128 -91 415 -136 509 -10 22 -19 44 -19
50 0 14 -113 240 -122 244 -4 2 -8 9 -8 15 0 15 -150 244 -185 282 -5 7 -23
29 -40 50 -88 114 -338 346 -470 436 -27 19 -52 36 -55 39 -12 13 -179 110
-188 110 -6 0 -12 3 -14 8 -4 9 -196 103 -219 107 -9 2 -25 8 -35 13 -78 40
-312 110 -454 135 -40 8 -93 17 -122 21 -40 7 -47 14 -42 39 20 92 -12 211
-71 270 -21 20 -28 37 -28 65 -1 75 23 163 69 255 41 84 56 106 161 234 96
117 114 150 92 164 -8 5 -35 9 -60 9 -101 0 -278 -100 -449 -255 -68 -62 -192
-193 -226 -241 -10 -14 -24 -31 -29 -38 -6 -6 -21 -28 -35 -48 -14 -21 -28
-38 -32 -38 -6 0 -11 61 -9 139 1 63 43 139 127 231 41 44 74 77 74 74 0 -4 8
2 18 12 13 16 125 108 177 146 163 122 235 184 235 204 0 29 -63 31 -135 5z"/>
</g>
</svg>
